<svg width="17" height="17" viewBox="0 0 17 17" fill="none" xmlns="http://www.w3.org/2000/svg">
<path d="M5.66667 8.49967C6.41812 8.49967 7.13879 8.20116 7.67014 7.66981C8.20149 7.13846 8.5 6.41779 8.5 5.66634C8.5 4.91489 8.20149 4.19422 7.67014 3.66287C7.13879 3.13152 6.41812 2.83301 5.66667 2.83301C4.91522 2.83301 4.19456 3.13152 3.6632 3.66287C3.13185 4.19422 2.83334 4.91489 2.83334 5.66634C2.83334 6.41779 3.13185 7.13846 3.6632 7.66981C4.19456 8.20116 4.91522 8.49967 5.66667 8.49967ZM12.0417 8.49967C12.6053 8.49967 13.1458 8.27579 13.5443 7.87728C13.9428 7.47876 14.1667 6.93826 14.1667 6.37467C14.1667 5.81109 13.9428 5.27059 13.5443 4.87207C13.1458 4.47356 12.6053 4.24967 12.0417 4.24967C11.4781 4.24967 10.9376 4.47356 10.5391 4.87207C10.1406 5.27059 9.91667 5.81109 9.91667 6.37467C9.91667 6.93826 10.1406 7.47876 10.5391 7.87728C10.9376 8.27579 11.4781 8.49967 12.0417 8.49967ZM3.01042 9.91634C2.58773 9.91634 2.18236 10.0843 1.88347 10.3831C1.58458 10.682 1.41667 11.0874 1.41667 11.5101V11.6872C1.41667 11.6872 1.41667 14.8747 5.66667 14.8747C9.91667 14.8747 9.91667 11.6872 9.91667 11.6872V11.5101C9.91667 11.0874 9.74876 10.682 9.44987 10.3831C9.15099 10.0843 8.74561 9.91634 8.32292 9.91634H3.01042ZM12.0417 13.8122C11.2122 13.8122 10.5768 13.684 10.0902 13.4878C10.3734 13.0098 10.5512 12.4768 10.6115 11.9245C10.6184 11.8574 10.6229 11.79 10.625 11.7226V11.5101C10.6259 10.9167 10.3969 10.346 9.98609 9.91776C10.0102 9.91676 10.0342 9.91628 10.0583 9.91634H14.025C14.4383 9.91634 14.8347 10.0805 15.1269 10.3728C15.4192 10.665 15.5833 11.0614 15.5833 11.4747C15.5833 11.4747 15.5833 13.8122 12.0417 13.8122Z" fill="#88898E"/>
</svg>
