<svg width="20" height="20" viewBox="0 0 20 20" fill="none" xmlns="http://www.w3.org/2000/svg">
<path d="M9.625 0C9.94409 0 10.2501 0.126758 10.4757 0.352387C10.7014 0.578017 10.8281 0.884036 10.8281 1.20312V8.42188H18.0469C18.366 8.42188 18.672 8.54863 18.8976 8.77426C19.1232 8.99989 19.25 9.30591 19.25 9.625C19.25 9.94409 19.1232 10.2501 18.8976 10.4757C18.672 10.7014 18.366 10.8281 18.0469 10.8281H10.8281V18.0469C10.8281 18.366 10.7014 18.672 10.4757 18.8976C10.2501 19.1232 9.94409 19.25 9.625 19.25C9.30591 19.25 8.99989 19.1232 8.77426 18.8976C8.54863 18.672 8.42188 18.366 8.42188 18.0469V10.8281H1.20312C0.884036 10.8281 0.578017 10.7014 0.352387 10.4757C0.126758 10.2501 0 9.94409 0 9.625C0 9.30591 0.126758 8.99989 0.352387 8.77426C0.578017 8.54863 0.884036 8.42188 1.20312 8.42188H8.42188V1.20312C8.42188 0.884036 8.54863 0.578017 8.77426 0.352387C8.99989 0.126758 9.30591 0 9.625 0Z" fill="#497EF1"/>
</svg>
