<svg width="81" height="81" viewBox="0 0 81 81" fill="none" xmlns="http://www.w3.org/2000/svg">
<circle cx="40.5" cy="40.5" r="40.5" fill="#F4F4F4"/>
<path d="M56.3427 37.736H55.0002V37.6668H40.0002V44.3335H49.4193C48.0452 48.2143 44.3527 51.0002 40.0002 51.0002C34.4777 51.0002 30.0002 46.5227 30.0002 41.0002C30.0002 35.4777 34.4777 31.0002 40.0002 31.0002C42.5493 31.0002 44.8685 31.9618 46.6343 33.5327L51.3485 28.8185C48.3718 26.0443 44.3902 24.3335 40.0002 24.3335C30.796 24.3335 23.3335 31.796 23.3335 41.0002C23.3335 50.2043 30.796 57.6668 40.0002 57.6668C49.2043 57.6668 56.6668 50.2043 56.6668 41.0002C56.6668 39.8827 56.5518 38.7918 56.3427 37.736Z" fill="#FFC107"/>
<path d="M25.2549 33.2427L30.7307 37.2585C32.2124 33.5902 35.8007 31.0002 39.9999 31.0002C42.5491 31.0002 44.8682 31.9618 46.6341 33.5327L51.3482 28.8185C48.3716 26.0443 44.3899 24.3335 39.9999 24.3335C33.5982 24.3335 28.0465 27.9477 25.2549 33.2427Z" fill="#FF3D00"/>
<path d="M40.0001 57.6668C44.3051 57.6668 48.2168 56.0193 51.1743 53.3401L46.0159 48.9751C44.2864 50.2904 42.173 51.0018 40.0001 51.0001C35.6651 51.0001 31.9843 48.2359 30.5976 44.3784L25.1626 48.5659C27.9209 53.9634 33.5226 57.6668 40.0001 57.6668Z" fill="#4CAF50"/>
<path d="M56.3425 37.7357H55V37.6665H40V44.3332H49.4192C48.7618 46.1802 47.5778 47.7942 46.0133 48.9757L46.0158 48.974L51.1742 53.339C50.8092 53.6707 56.6667 49.3332 56.6667 40.9998C56.6667 39.8823 56.5517 38.7915 56.3425 37.7357Z" fill="#1976D2"/>
</svg>
